<?xml version="1.0" standalone="no"?>
<!DOCTYPE svg PUBLIC "-//W3C//DTD SVG 1.1//EN" 
  "http://www.w3.org/Graphics/SVG/1.1/DTD/svg11.dtd">
<svg width="1920" height="1080" viewBox="0 0 1920 1080"
     xmlns="http://www.w3.org/2000/svg" version="1.1">
<desc>insect_prepare.blend, (Blender 4.5.5 LTS)</desc>
<polygon stroke="black" stroke-width="1" fill="rgb(204, 204, 204)" fill-opacity="1" points="957.020,324.723 957.020,246.312 849.334,246.312 " />
<polygon stroke="black" stroke-width="1" fill="rgb(204, 204, 204)" fill-opacity="1" points="849.334,246.312 957.020,246.312 957.020,167.902 " />
<polygon stroke="black" stroke-width="1" fill="rgb(204, 204, 204)" fill-opacity="1" points="849.334,246.312 957.020,167.902 1064.705,246.312 957.020,324.723 " />
<polygon stroke="black" stroke-width="1" fill="rgb(204, 204, 204)" fill-opacity="1" points="1064.705,246.312 957.020,167.902 957.020,246.312 " />
<polygon stroke="black" stroke-width="1" fill="rgb(204, 204, 204)" fill-opacity="1" points="1064.705,246.312 957.020,246.312 957.020,324.723 " />
<polygon stroke="black" stroke-width="1" fill="rgb(204, 204, 204)" fill-opacity="1" points="1001.888,300.705 1001.888,627.414 1046.757,627.414 1046.757,300.705 " />
<polygon stroke="black" stroke-width="1" fill="rgb(204, 204, 204)" fill-opacity="1" points="1001.888,627.414 1001.888,300.705 912.151,300.705 912.151,627.414 " />
<polygon stroke="black" stroke-width="1" fill="rgb(204, 204, 204)" fill-opacity="1" points="912.151,627.414 912.151,300.705 867.282,300.705 867.282,627.414 " />
<polygon stroke="black" stroke-width="1" fill="rgb(204, 204, 204)" fill-opacity="1" points="957.020,333.376 1010.862,464.060 957.020,464.060 " />
<polygon stroke="black" stroke-width="1" fill="rgb(204, 204, 204)" fill-opacity="1" points="1010.862,464.060 957.020,333.376 957.020,464.060 " />
<polygon stroke="black" stroke-width="1" fill="rgb(204, 204, 204)" fill-opacity="1" points="1010.862,464.060 957.020,464.060 957.020,594.744 " />
<polygon stroke="black" stroke-width="1" fill="rgb(204, 204, 204)" fill-opacity="1" points="1010.862,464.060 957.020,594.744 957.020,464.060 " />
<polygon stroke="black" stroke-width="1" fill="rgb(204, 204, 204)" fill-opacity="1" points="957.020,594.744 903.177,464.060 957.020,464.060 " />
<polygon stroke="black" stroke-width="1" fill="rgb(204, 204, 204)" fill-opacity="1" points="903.177,464.060 957.020,333.376 957.020,464.060 " />
<polygon stroke="black" stroke-width="1" fill="rgb(204, 204, 204)" fill-opacity="1" points="903.177,464.060 957.020,464.060 957.020,333.376 " />
<polygon stroke="black" stroke-width="1" fill="rgb(204, 204, 204)" fill-opacity="1" points="957.020,594.744 957.020,464.060 903.177,464.060 " />
<polygon stroke="black" stroke-width="1" fill="rgb(204, 204, 204)" fill-opacity="1" points="1001.072,642.565 994.464,699.287 1031.909,699.287 1045.125,642.565 " />
<polygon stroke="black" stroke-width="1" fill="rgb(204, 204, 204)" fill-opacity="1" points="994.464,699.287 1001.072,642.565 912.967,642.565 919.575,699.287 " />
<polygon stroke="black" stroke-width="1" fill="rgb(204, 204, 204)" fill-opacity="1" points="919.575,699.287 912.967,642.565 868.914,642.565 882.130,699.287 " />
<polygon stroke="black" stroke-width="1" fill="rgb(204, 204, 204)" fill-opacity="1" points="994.053,714.830 988.641,763.253 1019.304,763.253 1030.126,714.830 " />
<polygon stroke="black" stroke-width="1" fill="rgb(204, 204, 204)" fill-opacity="1" points="988.641,763.253 994.053,714.830 921.904,714.830 927.315,763.253 " />
<polygon stroke="black" stroke-width="1" fill="rgb(204, 204, 204)" fill-opacity="1" points="927.315,763.253 921.904,714.830 885.830,714.830 896.652,763.253 " />
<polygon stroke="black" stroke-width="1" fill="rgb(204, 204, 204)" fill-opacity="1" points="982.947,812.526 987.215,778.062 930.308,778.062 934.576,812.526 " />
<polygon stroke="black" stroke-width="1" fill="rgb(204, 204, 204)" fill-opacity="1" points="987.215,778.062 982.947,812.526 1007.131,812.526 1015.668,778.062 " />
<polygon stroke="black" stroke-width="1" fill="rgb(204, 204, 204)" fill-opacity="1" points="934.576,812.526 930.308,778.062 901.855,778.062 910.392,812.526 " />
<polygon stroke="black" stroke-width="1" fill="rgb(204, 204, 204)" fill-opacity="1" points="982.832,828.101 979.457,861.362 998.586,861.362 1005.337,828.101 " />
<polygon stroke="black" stroke-width="1" fill="rgb(204, 204, 204)" fill-opacity="1" points="979.457,861.362 982.832,828.101 937.823,828.101 941.199,861.362 " />
<polygon stroke="black" stroke-width="1" fill="rgb(204, 204, 204)" fill-opacity="1" points="941.199,861.362 937.823,828.101 915.319,828.101 922.070,861.362 " />
<polygon stroke="black" stroke-width="1" fill="rgb(204, 204, 204)" fill-opacity="1" points="978.920,880.565 976.366,909.036 990.838,909.036 995.946,880.565 " />
<polygon stroke="black" stroke-width="1" fill="rgb(204, 204, 204)" fill-opacity="1" points="976.366,909.036 978.920,880.565 944.869,880.565 947.422,909.036 " />
<polygon stroke="black" stroke-width="1" fill="rgb(204, 204, 204)" fill-opacity="1" points="947.422,909.036 944.869,880.565 927.843,880.565 932.950,909.036 " />
<polygon stroke="black" stroke-width="1" fill="rgb(204, 204, 204)" fill-opacity="1" points="962.388,926.195 962.388,1080.000 970.837,1080.000 988.792,926.195 " />
<polygon stroke="black" stroke-width="1" fill="rgb(204, 204, 204)" fill-opacity="1" points="962.388,1080.000 962.388,926.195 935.985,926.195 953.939,1080.000 " />

</svg>
