<?xml version="1.0" encoding="UTF-8" standalone="no"?>
<svg
   width="1920"
   height="1080"
   viewBox="0 0 1920 1080"
   version="1.1"
   id="svg2844"
   sodipodi:docname="body.svg"
   inkscape:version="1.1.2 (0a00cf5339, 2022-02-04)"
   xmlns:inkscape="http://www.inkscape.org/namespaces/inkscape"
   xmlns:sodipodi="http://sodipodi.sourceforge.net/DTD/sodipodi-0.dtd"
   xmlns="http://www.w3.org/2000/svg"
   xmlns:svg="http://www.w3.org/2000/svg">
  <defs
     id="defs2848" />
  <sodipodi:namedview
     id="namedview2846"
     pagecolor="#ffffff"
     bordercolor="#666666"
     borderopacity="1.0"
     inkscape:pageshadow="2"
     inkscape:pageopacity="0.0"
     inkscape:pagecheckerboard="0"
     showgrid="false"
     inkscape:zoom="1.3125"
     inkscape:cx="1360.381"
     inkscape:cy="587.04762"
     inkscape:window-width="3840"
     inkscape:window-height="1536"
     inkscape:window-x="0"
     inkscape:window-y="27"
     inkscape:window-maximized="1"
     inkscape:current-layer="svg2844" />
  <desc
     id="desc2776">insect_prepare_seperate.blend, (Blender 4.5.5 LTS)</desc>
  <polygon
  id="polygon2790"
  stroke="black"
  stroke-width="1"
  fill="rgb(204, 204, 204)"
  fill-opacity="0.25"
  points="
    1001.888,627.414
    1001.888,300.705
    912.151,300.705
    912.151,627.414
  "
/>
  <polygon
     stroke="black"
     stroke-width="1"
     fill="rgb(204, 204, 204)"
     fill-opacity="0.25"
     points="1001.888,300.705 1001.888,627.414 1046.757,627.414 1046.757,300.705 "
     id="polygon2788" />
  <g
     id="g4128"
     inkscape:label="g4128" />
  <polygon
     stroke="black"
     stroke-width="1"
     fill="rgb(204, 204, 204)"
     fill-opacity="0.25"
     points="912.151,627.414 912.151,300.705 867.282,300.705 867.282,627.414 "
     id="polygon2792" />
  <polygon
     stroke="black"
     stroke-width="1"
     fill="rgb(204, 204, 204)"
     fill-opacity="0.25"
     points="957.020,333.376 1010.862,464.060 957.020,464.060 "
     id="polygon2794" />
  <polygon
     stroke="black"
     stroke-width="1"
     fill="rgb(204, 204, 204)"
     fill-opacity="0.25"
     points="1010.862,464.060 957.020,333.376 957.020,464.060 "
     id="polygon2796" />
  <polygon
     stroke="black"
     stroke-width="1"
     fill="rgb(204, 204, 204)"
     fill-opacity="0.25"
     points="1010.862,464.060 957.020,464.060 957.020,594.744 "
     id="polygon2798" />
  <polygon
     stroke="black"
     stroke-width="1"
     fill="rgb(204, 204, 204)"
     fill-opacity="0.25"
     points="1010.862,464.060 957.020,594.744 957.020,464.060 "
     id="polygon2800" />
  <polygon
     stroke="black"
     stroke-width="1"
     fill="rgb(204, 204, 204)"
     fill-opacity="0.25"
     points="957.020,594.744 903.177,464.060 957.020,464.060 "
     id="polygon2802" />
  <polygon
     stroke="black"
     stroke-width="1"
     fill="rgb(204, 204, 204)"
     fill-opacity="0.25"
     points="903.177,464.060 957.020,333.376 957.020,464.060 "
     id="polygon2804" />
  <polygon
     stroke="black"
     stroke-width="1"
     fill="rgb(204, 204, 204)"
     fill-opacity="0.25"
     points="903.177,464.060 957.020,464.060 957.020,333.376 "
     id="polygon2806" />
  <polygon
     stroke="black"
     stroke-width="1"
     fill="rgb(204, 204, 204)"
     fill-opacity="0.25"
     points="957.020,594.744 957.020,464.060 903.177,464.060 "
     id="polygon2808" />
  <polygon
     stroke="black"
     stroke-width="1"
     fill="rgb(204, 204, 204)"
     fill-opacity="0.25"
     points="1001.072,642.565 994.464,699.287 1031.909,699.287 1045.125,642.565 "
     id="polygon2810" />
  <polygon
     stroke="black"
     stroke-width="1"
     fill="rgb(204, 204, 204)"
     fill-opacity="0.25"
     points="994.464,699.287 1001.072,642.565 912.967,642.565 919.575,699.287 "
     id="polygon2812" />
  <polygon
     stroke="black"
     stroke-width="1"
     fill="rgb(204, 204, 204)"
     fill-opacity="0.25"
     points="919.575,699.287 912.967,642.565 868.914,642.565 882.130,699.287 "
     id="polygon2814" />
  <polygon
     stroke="black"
     stroke-width="1"
     fill="rgb(204, 204, 204)"
     fill-opacity="0.25"
     points="994.053,714.830 988.641,763.253 1019.304,763.253 1030.126,714.830 "
     id="polygon2816" />
  <polygon
     stroke="black"
     stroke-width="1"
     fill="rgb(204, 204, 204)"
     fill-opacity="0.25"
     points="988.641,763.253 994.053,714.830 921.904,714.830 927.315,763.253 "
     id="polygon2818" />
  <polygon
     stroke="black"
     stroke-width="1"
     fill="rgb(204, 204, 204)"
     fill-opacity="0.25"
     points="927.315,763.253 921.904,714.830 885.830,714.830 896.652,763.253 "
     id="polygon2820" />
  <polygon
     stroke="black"
     stroke-width="1"
     fill="rgb(204, 204, 204)"
     fill-opacity="0.25"
     points="982.947,812.526 987.215,778.062 930.308,778.062 934.576,812.526 "
     id="polygon2822" />
  <polygon
     stroke="black"
     stroke-width="1"
     fill="rgb(204, 204, 204)"
     fill-opacity="0.25"
     points="987.215,778.062 982.947,812.526 1007.131,812.526 1015.668,778.062 "
     id="polygon2824" />
  <polygon
     stroke="black"
     stroke-width="1"
     fill="rgb(204, 204, 204)"
     fill-opacity="0.25"
     points="934.576,812.526 930.308,778.062 901.855,778.062 910.392,812.526 "
     id="polygon2826" />
  <polygon
     stroke="black"
     stroke-width="1"
     fill="rgb(204, 204, 204)"
     fill-opacity="0.25"
     points="982.832,828.101 979.457,861.362 998.586,861.362 1005.337,828.101 "
     id="polygon2828" />
  <polygon
     stroke="black"
     stroke-width="1"
     fill="rgb(204, 204, 204)"
     fill-opacity="0.25"
     points="979.457,861.362 982.832,828.101 937.823,828.101 941.199,861.362 "
     id="polygon2830" />
  <polygon
     stroke="black"
     stroke-width="1"
     fill="rgb(204, 204, 204)"
     fill-opacity="0.25"
     points="941.199,861.362 937.823,828.101 915.319,828.101 922.070,861.362 "
     id="polygon2832" />
  <polygon
     stroke="black"
     stroke-width="1"
     fill="rgb(204, 204, 204)"
     fill-opacity="0.25"
     points="978.920,880.565 976.366,909.036 990.838,909.036 995.946,880.565 "
     id="polygon2834" />
  <polygon
     stroke="black"
     stroke-width="1"
     fill="rgb(204, 204, 204)"
     fill-opacity="0.25"
     points="976.366,909.036 978.920,880.565 944.869,880.565 947.422,909.036 "
     id="polygon2836" />
  <polygon
     stroke="black"
     stroke-width="1"
     fill="rgb(204, 204, 204)"
     fill-opacity="0.25"
     points="947.422,909.036 944.869,880.565 927.843,880.565 932.950,909.036 "
     id="polygon2838" />
  <polygon
     stroke="black"
     stroke-width="1"
     fill="rgb(204, 204, 204)"
     fill-opacity="0.25"
     points="962.388,926.195 962.388,1080.000 970.837,1080.000 988.792,926.195 "
     id="polygon2840" />
  <polygon
     stroke="black"
     stroke-width="1"
     fill="rgb(204, 204, 204)"
     fill-opacity="0.25"
     points="962.388,1080.000 962.388,926.195 935.985,926.195 953.939,1080.000 "
     id="polygon2842" />
  <polygon
  id="polygon2780"
  stroke="black"
  stroke-width="1"
  fill="rgb(204, 204, 204)"
  fill-opacity="0.25"
  points="
    957.01953,167.90234
    928.34961,188.77734
    928.34961,257.65625
    892.38672,277.66211
    957.01953,324.72266
    1021.6523,277.66211
    985.68945,257.65625
    985.68945,188.77734
  "
/>
</svg>
