<?xml version="1.0" standalone="no"?>
<!DOCTYPE svg PUBLIC "-//W3C//DTD SVG 1.1//EN" 
  "http://www.w3.org/Graphics/SVG/1.1/DTD/svg11.dtd">
<svg width="1920" height="1080" viewBox="0 0 1920 1080"
     xmlns="http://www.w3.org/2000/svg" version="1.1">
<desc>insect_prepare.blend, (Blender 4.5.5 LTS)</desc>
<polygon stroke="black" stroke-width="1" fill="rgb(204, 204, 204)" fill-opacity="1" points="806.214,257.656 829.540,202.693 806.214,147.730 " />
<polygon stroke="black" stroke-width="1" fill="rgb(204, 204, 204)" fill-opacity="1" points="867.282,291.626 829.540,202.693 806.214,257.656 " />
<polygon stroke="black" stroke-width="1" fill="rgb(204, 204, 204)" fill-opacity="1" points="806.214,147.730 829.540,202.693 867.282,113.760 " />
<polygon stroke="black" stroke-width="1" fill="rgb(204, 204, 204)" fill-opacity="1" points="905.024,202.693 829.540,202.693 867.282,291.626 " />
<polygon stroke="black" stroke-width="1" fill="rgb(204, 204, 204)" fill-opacity="1" points="905.024,202.693 867.282,113.760 829.540,202.693 " />
<polygon stroke="black" stroke-width="1" fill="rgb(204, 204, 204)" fill-opacity="1" points="867.282,291.626 928.350,257.656 905.024,202.693 " />
<polygon stroke="black" stroke-width="1" fill="rgb(204, 204, 204)" fill-opacity="1" points="867.282,113.760 928.350,147.730 928.350,257.656 867.282,291.626 806.214,257.656 806.214,147.730 " />
<polygon stroke="black" stroke-width="1" fill="rgb(204, 204, 204)" fill-opacity="1" points="928.350,257.656 928.350,147.730 905.024,202.693 " />
<polygon stroke="black" stroke-width="1" fill="rgb(204, 204, 204)" fill-opacity="1" points="928.350,147.730 867.282,113.760 905.024,202.693 " />
<polygon stroke="black" stroke-width="1" fill="rgb(204, 204, 204)" fill-opacity="1" points="985.689,147.730 1009.015,202.693 1046.757,113.760 " />
<polygon stroke="black" stroke-width="1" fill="rgb(204, 204, 204)" fill-opacity="1" points="1084.499,202.693 1046.757,113.760 1009.015,202.693 " />
<polygon stroke="black" stroke-width="1" fill="rgb(204, 204, 204)" fill-opacity="1" points="985.689,257.656 1009.015,202.693 985.689,147.730 " />
<polygon stroke="black" stroke-width="1" fill="rgb(204, 204, 204)" fill-opacity="1" points="1046.757,291.626 1009.015,202.693 985.689,257.656 " />
<polygon stroke="black" stroke-width="1" fill="rgb(204, 204, 204)" fill-opacity="1" points="1084.499,202.693 1009.015,202.693 1046.757,291.626 " />
<polygon stroke="black" stroke-width="1" fill="rgb(204, 204, 204)" fill-opacity="1" points="1046.757,113.760 1107.825,147.730 1107.825,257.656 1046.757,291.626 985.689,257.656 985.689,147.730 " />
<polygon stroke="black" stroke-width="1" fill="rgb(204, 204, 204)" fill-opacity="1" points="1046.757,291.626 1107.825,257.656 1084.499,202.693 " />
<polygon stroke="black" stroke-width="1" fill="rgb(204, 204, 204)" fill-opacity="1" points="1107.825,257.656 1107.825,147.730 1084.499,202.693 " />
<polygon stroke="black" stroke-width="1" fill="rgb(204, 204, 204)" fill-opacity="1" points="1107.825,147.730 1046.757,113.760 1084.499,202.693 " />

</svg>
